Coordinates
version=1
nRows=13
nColumns=34
inDegrees=yes

Units are S.I. units (second, meters, Newtons, ...)
If the header above contains a line with 'inDegrees', this indicates whether rotational values are in degrees (yes) or radians (no).

endheader
time	pelvis_tilt	pelvis_list	pelvis_rotation	pelvis_tx	pelvis_ty	pelvis_tz	hip_flexion_r	hip_adduction_r	hip_rotation_r	knee_angle_r	ankle_angle_r	subtalar_angle_r	mtp_angle_r	hip_flexion_l	hip_adduction_l	hip_rotation_l	knee_angle_l	ankle_angle_l	subtalar_angle_l	mtp_angle_l	lumbar_extension	lumbar_bending	lumbar_rotation	arm_flex_r	arm_add_r	arm_rot_r	elbow_flex_r	pro_sup_r	arm_flex_l	arm_add_l	arm_rot_l	elbow_flex_l	pro_sup_l
      3.81666670	    -33.82929375	     -2.67401307	      8.17017874	      0.81118093	      0.76002794	     -0.11546986	     77.70583111	    -11.23343708	     -2.08193457	     82.76745030	     27.32921355	    -33.46298148	      0.00000000	     80.20977801	     -0.97170540	      2.38417201	     81.28680158	     24.58415833	    -20.72222641	      0.00000000	    -13.40775703	      1.67679576	      2.06533169	    198.73972719	   -141.97902202	    197.27926796	     70.83815368	     89.98919374	     36.55297434	    -38.76003521	     37.66106274	     93.27351028	     85.65114132
      3.83333330	    -32.89343621	     -2.79667448	      8.24420099	      0.82571593	      0.78086462	     -0.11699583	     73.28971510	    -11.01522966	     -3.07844144	     78.00017571	     25.61179111	    -33.74493816	      0.00000000	     76.09100328	     -1.21756525	      2.28733441	     76.81039361	     23.44137133	    -19.91163340	      0.00000000	    -12.41272116	      1.47150774	      2.18764029	    196.35901257	   -143.23246120	    198.23693537	     67.81649220	     89.94190476	     33.61601282	    -38.88638885	     37.83436600	     90.59523220	     85.31416141
      3.85000000	    -31.72428119	     -2.89641710	      8.40976459	      0.82590382	      0.81213980	     -0.11126051	     68.71973801	    -10.51457698	     -4.04925374	     72.72369126	     22.64764481	    -35.00000000	      0.00000000	     71.63441250	     -1.45437027	      2.26728995	     71.62478511	     21.15934914	    -20.20997750	      0.00000000	    -12.14320327	      0.96562778	      2.39969414	    195.08862153	   -144.79750793	    199.82075183	     63.72127829	     89.80104086	     32.00724754	    -38.80474227	     38.26620990	     87.54202589	     84.83214786
      3.86666670	    -29.91209192	     -3.01979846	      8.71881133	      0.83270982	      0.84896016	     -0.10929260	     63.07153799	    -10.01206972	     -5.37529567	     66.52237039	     19.70794842	    -35.00000000	      0.00000000	     66.02534840	     -1.73208191	      2.33223992	     65.32078137	     18.24799825	    -20.42696233	      0.00000000	    -12.83212236	      0.56093552	      2.44866199	    194.48831542	   -146.62195025	    201.36159303	     59.39037509	     89.55038962	     31.02384447	    -38.33057938	     38.51976655	     84.25372292	     84.26710010
      3.88333330	    -27.82737815	     -3.04512782	      9.07414928	      0.84104773	      0.87215072	     -0.11254920	     57.33335347	     -9.58261795	     -6.58262731	     60.70390926	     16.50683470	    -35.00000000	      0.00000000	     60.16971198	     -1.83816444	      2.51076908	     59.11093108	     15.68851334	    -20.11368234	      0.00000000	    -13.78183812	      0.19731236	      1.98770669	    195.36831625	   -147.84829705	    206.31354593	     54.56969968	     88.48997067	     30.56218420	    -38.01458725	     39.65330899	     80.69158785	     82.50008394
      3.90000000	    -26.08521630	     -3.17491867	      9.60163610	      0.83984452	      0.89088760	     -0.10744931	     52.74556787	     -9.13098854	     -7.76788492	     55.81473231	     13.77426858	    -35.00000000	      0.00000000	     55.44112891	     -2.11789692	      2.55855213	     53.62645854	     13.28678215	    -20.02347033	      0.00000000	    -14.70650702	     -0.05286109	      1.88477133	    194.79089581	   -148.88759661	    207.25184298	     52.79407111	     87.87905396	     30.13996546	    -37.16659502	     38.62373114	     77.35817410	     81.72093801
      3.91666670	    -24.31654052	     -3.40097402	     10.34786251	      0.84038736	      0.91693159	     -0.11156181	     48.29074694	     -8.80135916	     -8.93909406	     50.91709044	     10.29120153	    -35.00000000	      0.00000000	     50.80401185	     -2.13423421	      2.77607235	     47.95892118	     11.05536883	    -19.10990737	      0.00000000	    -15.36430670	      0.14773694	      1.66680668	    195.14242405	   -148.78982642	    211.88638628	     51.21947352	     84.44957218	     29.77752673	    -36.12142597	     38.17507012	     74.91776826	     78.48857004
      3.93333330	    -22.61817520	     -3.60897204	     11.22158941	      0.84684795	      0.93638978	     -0.11411029	     44.07180918	     -8.56612343	    -10.00958113	     46.39204156	      6.68296818	    -35.00000000	      0.00000000	     46.23062051	     -2.18130404	      3.03191126	     42.44405862	      8.81324261	    -17.92405135	      0.00000000	    -15.62276855	      0.46379021	      2.02695142	    193.67036075	   -148.78159588	    212.50729036	     50.61698704	     83.71060980	     28.89641349	    -34.35245496	     36.52828567	     72.97600936	     77.75948326
      3.95000000	    -21.03344098	     -3.77268759	     12.09380712	      0.85751430	      0.94858236	     -0.11469224	     40.32105393	     -8.38716342	    -11.08279023	     42.97199686	      2.86473251	    -35.00000000	      0.00000000	     41.75171640	     -2.29338334	      3.22319585	     37.31765882	      7.42912871	    -16.28319693	      0.00000000	    -15.28316363	      0.72503309	      2.39628795	    191.65233869	   -148.49721949	    213.49917406	     51.02695318	     83.17646480	     27.52852603	    -33.04963352	     35.33021705	     72.25603505	     77.18779788
      3.96666670	    -19.65877980	     -4.06564707	     13.02936587	      0.86087790	      0.95572716	     -0.11851421	     37.32052406	     -8.25289857	    -12.00313386	     40.60801531	      0.07255020	    -35.00000000	      0.00000000	     37.93996879	     -2.43526525	      3.46306423	     33.01875401	      6.57460343	    -14.74477493	      0.00000000	    -14.56702333	      1.22548596	      2.86484652	    189.44307621	   -147.78040327	    214.46948803	     52.27659189	     82.57875938	     25.94427669	    -31.75243750	     33.94270043	     72.66442908	     76.62284957
      3.98333330	    -18.39660177	     -4.41676218	     14.13184544	      0.86893581	      0.96090129	     -0.11932427	     34.58646594	     -7.94926189	    -12.55423989	     38.77815115	     -1.90103062	    -35.00000000	      0.00000000	     34.34383668	     -2.68237665	      3.92634656	     28.85444355	      5.95915222	    -12.58066352	      0.00000000	    -13.40795438	      1.76509240	      3.30375991	    186.78014607	   -146.87747925	    215.11865418	     54.54106209	     81.69730207	     23.54790898	    -30.86504691	     32.32681083	     74.69060839	     76.03741977
      4.00000000	    -17.43121965	     -4.80162568	     15.15122271	      0.87490762	      0.97482232	     -0.12330588	     32.13682876	     -7.43023140	    -12.52725714	     36.65359386	     -3.94173125	    -35.00000000	      0.00000000	     30.93972658	     -2.94395484	      4.34193516	     24.61632852	      5.44869796	    -10.13963391	      0.00000000	    -11.94527854	      2.44857384	      3.64953569	    184.40697375	   -146.50362305	    215.24274961	     55.95880888	     80.86492598	     20.93301837	    -29.86909496	     30.77098435	     76.58463410	     75.58803523
      4.01666670	    -16.36201338	     -5.28045279	     16.18109877	      0.88252426	      0.97730787	     -0.12402242	     29.63308484	     -6.55442128	    -11.98641856	     34.66812565	     -4.16532589	    -34.25008656	      0.00000000	     27.70588819	     -3.53033704	      4.77724265	     20.84578064	      5.11251904	     -8.25249936	      0.00000000	    -10.38048173	      3.17248324	      4.16693196	    181.97324114	   -145.96633908	    215.60515419	     57.54402205	     80.49723239	     18.71659829	    -29.09011772	     29.74371310	     78.74402073	     75.39631711
